<svg width="519" height="512" viewBox="0 0 519 512" fill="none" xmlns="http://www.w3.org/2000/svg">
<g clip-path="url(#clip0_1_2)">
<path d="M499.822 134.214C496.931 123.542 491.294 113.813 483.469 105.995C475.645 98.1772 465.908 92.5437 455.226 89.6554C416.123 79 258.744 79 258.744 79C258.744 79 101.358 79.3225 62.2541 89.9779C51.5727 92.8664 41.8351 98.5002 34.0109 106.318C26.1866 114.137 20.5488 123.866 17.6588 134.539C5.83088 203.958 1.24262 309.737 17.9836 376.38C20.8739 387.052 26.5118 396.781 34.3361 404.599C42.1603 412.417 51.8978 418.05 62.5789 420.938C101.682 431.594 259.065 431.594 259.065 431.594C259.065 431.594 416.446 431.594 455.547 420.938C466.229 418.05 475.967 412.417 483.791 404.599C491.616 396.781 497.254 387.052 500.145 376.38C512.62 306.862 516.464 201.15 499.822 134.216V134.214Z" fill="#F45449"/>
</g>
<path fill-rule="evenodd" clip-rule="evenodd" d="M232.798 151.298C235.127 147.857 239.792 146.964 243.218 149.304L395.255 253.193L247.27 356.16C243.864 358.529 239.192 357.676 236.834 354.254C234.476 350.833 235.325 346.138 238.73 343.768L368.745 253.305L234.782 161.768C231.357 159.427 230.469 154.74 232.798 151.298Z" fill="white"/>
<path d="M215 365.936C204.556 365.937 194.347 362.86 185.663 357.095C176.979 351.329 170.211 343.134 166.214 333.547C162.217 323.959 161.172 313.408 163.209 303.23C165.247 293.051 170.276 283.702 177.662 276.364L178.039 276.082L241.778 219.865C245.261 216.412 248.02 212.308 249.898 207.789C251.775 203.27 252.733 198.426 252.715 193.537C252.715 183.597 248.742 174.064 241.669 167.036C234.596 160.007 225.003 156.059 215 156.059C204.997 156.059 195.404 160.007 188.331 167.036C181.258 174.064 177.285 183.597 177.285 193.537C177.267 198.426 178.225 203.27 180.102 207.789C181.98 212.308 184.739 216.412 188.222 219.865L197.274 227.829C198.774 229.146 199.687 231.002 199.81 232.987C199.934 234.973 199.259 236.926 197.934 238.417C196.608 239.908 194.741 240.815 192.743 240.938C190.745 241.061 188.78 240.39 187.279 239.073L178.039 230.921L177.662 230.64C172.758 225.768 168.868 219.984 166.214 213.617C163.56 207.251 162.195 200.428 162.195 193.537C162.195 186.646 163.56 179.823 166.214 173.457C168.868 167.09 172.758 161.306 177.662 156.434C185.046 149.095 194.455 144.097 204.698 142.072C214.941 140.047 225.558 141.086 235.207 145.058C244.856 149.03 253.102 155.755 258.904 164.385C264.706 173.014 267.802 183.159 267.802 193.537C267.828 200.431 266.475 207.262 263.82 213.632C261.165 220.002 257.262 225.783 252.338 230.64L251.961 230.921L188.222 287.139C184.739 290.592 181.98 294.696 180.102 299.215C178.225 303.734 177.267 308.578 177.285 313.467C177.285 323.407 181.258 332.939 188.331 339.968C195.404 346.996 204.997 350.945 215 350.945C225.003 350.945 234.596 346.996 241.669 339.968C248.742 332.939 252.715 323.407 252.715 313.467C252.733 308.578 251.775 303.734 249.898 299.215C248.02 294.696 245.261 290.592 241.778 287.139L232.726 279.174C231.226 277.857 230.313 276.002 230.19 274.016C230.066 272.031 230.741 270.078 232.066 268.587C233.392 267.096 235.259 266.189 237.257 266.066C239.255 265.943 241.22 266.614 242.721 267.931L251.961 276.082L252.338 276.364C259.724 283.702 264.753 293.051 266.791 303.23C268.828 313.408 267.783 323.959 263.786 333.547C259.789 343.134 253.021 351.329 244.337 357.095C235.653 362.86 225.444 365.937 215 365.936Z" fill="white"/>
<defs>
<clipPath id="clip0_1_2">
<rect width="504" height="354" fill="white" transform="translate(7 79)"/>
</clipPath>
</defs>
</svg>
